<svg width="18" height="20" viewBox="0 0 18 20" fill="none" xmlns="http://www.w3.org/2000/svg">
<path d="M11.0156 6.98438H6.98438C6.46875 6.98438 6 6.51562 6 6C6 5.4375 6.46875 4.96875 6.98438 4.96875H11.0156C11.5312 4.96875 12 5.4375 12 6C12 6.51562 11.5312 6.98438 11.0156 6.98438ZM11.0156 9.98438H6.98438C6.46875 9.98438 6 9.51562 6 9C6 8.4375 6.46875 7.96875 6.98438 7.96875H11.0156C11.5312 7.96875 12 8.4375 12 9C12 9.51562 11.5312 9.98438 11.0156 9.98438ZM16.5 1.5L15 0L13.5 1.5L12 0L10.5 1.5L9 0L7.5 1.5L6 0L4.5 1.5L3 0V13.9688H0.984375C0.46875 13.9688 0 14.4375 0 15V16.9688C0 18.6562 1.35938 19.9688 3 19.9688H15C16.6406 19.9688 18 18.6562 18 16.9688V0L16.5 1.5ZM12 18H3C2.4375 18 2.01562 17.5312 2.01562 16.9688V15.9844H12V18ZM15.9844 16.9688C15.9844 17.5312 15.5625 18 15 18C14.4375 18 14.0156 17.5312 14.0156 16.9688V15C14.0156 14.4375 13.5469 13.9688 12.9844 13.9688H5.01562V3H15.9844V16.9688ZM12.9844 6C12.9844 5.4375 13.4531 4.96875 14.0156 4.96875C14.5312 4.96875 15 5.4375 15 6C15 6.51562 14.5312 6.98438 14.0156 6.98438C13.4531 6.98438 12.9844 6.51562 12.9844 6ZM12.9844 9C12.9844 8.4375 13.4531 7.96875 14.0156 7.96875C14.5312 7.96875 15 8.4375 15 9C15 9.51562 14.5312 9.98438 14.0156 9.98438C13.4531 9.98438 12.9844 9.51562 12.9844 9Z" fill="#6B7280"/>
</svg>
