<svg width="48" height="48" viewBox="0 0 48 48" fill="none" xmlns="http://www.w3.org/2000/svg">
<rect width="48" height="48" rx="24" fill="#FFFBEB"/>
<path d="M15.25 32.75C14.8958 32.75 14.599 32.6302 14.3594 32.3906C14.1198 32.151 14 31.8542 14 31.5C14 31.1458 14.1198 30.849 14.3594 30.6094C14.599 30.3698 14.8958 30.25 15.25 30.25H16.5V21.5C16.5 19.7708 17.0208 18.2344 18.0625 16.8906C19.1042 15.5469 20.4583 14.6667 22.125 14.25V13.375C22.125 12.8542 22.3073 12.4115 22.6719 12.0469C23.0365 11.6823 23.4792 11.5 24 11.5C24.5208 11.5 24.9635 11.6823 25.3281 12.0469C25.6927 12.4115 25.875 12.8542 25.875 13.375V14.25C27.5417 14.6667 28.8958 15.5469 29.9375 16.8906C30.9792 18.2344 31.5 19.7708 31.5 21.5V30.25H32.75C33.1042 30.25 33.401 30.3698 33.6406 30.6094C33.8802 30.849 34 31.1458 34 31.5C34 31.8542 33.8802 32.151 33.6406 32.3906C33.401 32.6302 33.1042 32.75 32.75 32.75H15.25V32.75M24 23.375V23.375V23.375V23.375V23.375V23.375V23.375V23.375V23.375M24 36.5C23.3125 36.5 22.724 36.2552 22.2344 35.7656C21.7448 35.276 21.5 34.6875 21.5 34H26.5C26.5 34.6875 26.2552 35.276 25.7656 35.7656C25.276 36.2552 24.6875 36.5 24 36.5V36.5M19 30.25H29V21.5C29 20.125 28.5104 18.9479 27.5312 17.9688C26.5521 16.9896 25.375 16.5 24 16.5C22.625 16.5 21.4479 16.9896 20.4688 17.9688C19.4896 18.9479 19 20.125 19 21.5V30.25V30.25" fill="#F59E0B"/>
</svg>
