<svg width="48" height="48" viewBox="0 0 48 48" fill="none" xmlns="http://www.w3.org/2000/svg">
<rect width="48" height="48" rx="24" fill="#EFF6FF"/>
<path d="M16.5 36.375C15.4583 36.375 14.5729 36.0104 13.8438 35.2812C13.1146 34.5521 12.75 33.6667 12.75 32.625V30.125C12.75 29.7708 12.8698 29.474 13.1094 29.2344C13.349 28.9948 13.6458 28.875 14 28.875H16.5V12.125C16.5 11.9792 16.5625 11.8802 16.6875 11.8281C16.8125 11.776 16.9271 11.8021 17.0312 11.9062L17.9375 12.8125C18.0625 12.9375 18.2083 13 18.375 13C18.5417 13 18.6875 12.9375 18.8125 12.8125L19.8125 11.8125C19.9375 11.6875 20.0833 11.625 20.25 11.625C20.4167 11.625 20.5625 11.6875 20.6875 11.8125L21.6875 12.8125C21.8125 12.9375 21.9583 13 22.125 13C22.2917 13 22.4375 12.9375 22.5625 12.8125L23.5625 11.8125C23.6875 11.6875 23.8333 11.625 24 11.625C24.1667 11.625 24.3125 11.6875 24.4375 11.8125L25.4375 12.8125C25.5625 12.9375 25.7083 13 25.875 13C26.0417 13 26.1875 12.9375 26.3125 12.8125L27.3125 11.8125C27.4375 11.6875 27.5833 11.625 27.75 11.625C27.9167 11.625 28.0625 11.6875 28.1875 11.8125L29.1875 12.8125C29.3125 12.9375 29.4583 13 29.625 13C29.7917 13 29.9375 12.9375 30.0625 12.8125L31.0625 11.8125C31.1875 11.6875 31.3333 11.625 31.5 11.625C31.6667 11.625 31.8125 11.6875 31.9375 11.8125L32.9375 12.8125C33.0625 12.9375 33.2083 13 33.375 13C33.5417 13 33.6875 12.9375 33.8125 12.8125L34.7188 11.9062C34.8229 11.8021 34.9375 11.776 35.0625 11.8281C35.1875 11.8802 35.25 11.9792 35.25 12.125V32.625C35.25 33.6667 34.8854 34.5521 34.1562 35.2812C33.4271 36.0104 32.5417 36.375 31.5 36.375H16.5V36.375M31.5 33.875C31.8542 33.875 32.151 33.7552 32.3906 33.5156C32.6302 33.276 32.75 32.9792 32.75 32.625V15.125H19V28.875H29C29.3542 28.875 29.651 28.9948 29.8906 29.2344C30.1302 29.474 30.25 29.7708 30.25 30.125V32.625C30.25 32.9792 30.3698 33.276 30.6094 33.5156C30.849 33.7552 31.1458 33.875 31.5 33.875V33.875M21.5 17.625H26.5C26.8542 17.625 27.151 17.7448 27.3906 17.9844C27.6302 18.224 27.75 18.5208 27.75 18.875C27.75 19.2292 27.6302 19.526 27.3906 19.7656C27.151 20.0052 26.8542 20.125 26.5 20.125H21.5C21.1458 20.125 20.849 20.0052 20.6094 19.7656C20.3698 19.526 20.25 19.2292 20.25 18.875C20.25 18.5208 20.3698 18.224 20.6094 17.9844C20.849 17.7448 21.1458 17.625 21.5 17.625V17.625M21.5 21.375H26.5C26.8542 21.375 27.151 21.4948 27.3906 21.7344C27.6302 21.974 27.75 22.2708 27.75 22.625C27.75 22.9792 27.6302 23.276 27.3906 23.5156C27.151 23.7552 26.8542 23.875 26.5 23.875H21.5C21.1458 23.875 20.849 23.7552 20.6094 23.5156C20.3698 23.276 20.25 22.9792 20.25 22.625C20.25 22.2708 20.3698 21.974 20.6094 21.7344C20.849 21.4948 21.1458 21.375 21.5 21.375V21.375M30.25 20.125C29.8958 20.125 29.599 20.0052 29.3594 19.7656C29.1198 19.526 29 19.2292 29 18.875C29 18.5208 29.1198 18.224 29.3594 17.9844C29.599 17.7448 29.8958 17.625 30.25 17.625C30.6042 17.625 30.901 17.7448 31.1406 17.9844C31.3802 18.224 31.5 18.5208 31.5 18.875C31.5 19.2292 31.3802 19.526 31.1406 19.7656C30.901 20.0052 30.6042 20.125 30.25 20.125V20.125M30.25 23.875C29.8958 23.875 29.599 23.7552 29.3594 23.5156C29.1198 23.276 29 22.9792 29 22.625C29 22.2708 29.1198 21.974 29.3594 21.7344C29.599 21.4948 29.8958 21.375 30.25 21.375C30.6042 21.375 30.901 21.4948 31.1406 21.7344C31.3802 21.974 31.5 22.2708 31.5 22.625C31.5 22.9792 31.3802 23.276 31.1406 23.5156C30.901 23.7552 30.6042 23.875 30.25 23.875V23.875M16.5 33.875H27.75V31.375H15.25V32.625C15.25 32.9792 15.3698 33.276 15.6094 33.5156C15.849 33.7552 16.1458 33.875 16.5 33.875V33.875M15.25 33.875C15.25 33.875 15.25 33.7552 15.25 33.5156C15.25 33.276 15.25 32.9792 15.25 32.625V31.375V31.375V33.875V33.875V33.875" fill="#3B82F6"/>
</svg>
