<svg width="48" height="48" viewBox="0 0 48 48" fill="none" xmlns="http://www.w3.org/2000/svg">
<rect width="48" height="48" rx="24" fill="#F0F9FF"/>
<path d="M24 36.1875C21.1458 36.1875 18.7656 35.2083 16.8594 33.25C14.9531 31.2917 14 28.8542 14 25.9375C14 24.6458 14.2917 23.3542 14.875 22.0625C15.4583 20.7708 16.1875 19.5312 17.0625 18.3438C17.9375 17.1562 18.8854 16.0417 19.9062 15C20.9271 13.9583 21.875 13.0521 22.75 12.2812C22.9167 12.1146 23.1094 11.9948 23.3281 11.9219C23.5469 11.849 23.7708 11.8125 24 11.8125C24.2292 11.8125 24.4531 11.849 24.6719 11.9219C24.8906 11.9948 25.0833 12.1146 25.25 12.2812C26.125 13.0521 27.0729 13.9583 28.0938 15C29.1146 16.0417 30.0625 17.1562 30.9375 18.3438C31.8125 19.5312 32.5417 20.7708 33.125 22.0625C33.7083 23.3542 34 24.6458 34 25.9375C34 28.8542 33.0469 31.2917 31.1406 33.25C29.2344 35.2083 26.8542 36.1875 24 36.1875V36.1875M24 33.6875C26.1667 33.6875 27.9583 32.9531 29.375 31.4844C30.7917 30.0156 31.5 28.1667 31.5 25.9375C31.5 24.4167 30.8698 22.6979 29.6094 20.7812C28.349 18.8646 26.4792 16.7708 24 14.5C21.5208 16.7708 19.651 18.8646 18.3906 20.7812C17.1302 22.6979 16.5 24.4167 16.5 25.9375C16.5 28.1667 17.2083 30.0156 18.625 31.4844C20.0417 32.9531 21.8333 33.6875 24 33.6875V33.6875M24 23.6875V23.6875V23.6875V23.6875V23.6875V23.6875V23.6875V23.6875V23.6875V23.6875M24.3438 32.4375C24.5938 32.4167 24.8073 32.3177 24.9844 32.1406C25.1615 31.9635 25.25 31.75 25.25 31.5C25.25 31.2083 25.1562 30.974 24.9688 30.7969C24.7812 30.6198 24.5417 30.5417 24.25 30.5625C23.3958 30.625 22.4896 30.3906 21.5312 29.8594C20.5729 29.3281 19.9688 28.3646 19.7188 26.9688C19.6771 26.7396 19.5677 26.5521 19.3906 26.4062C19.2135 26.2604 19.0104 26.1875 18.7812 26.1875C18.4896 26.1875 18.25 26.2969 18.0625 26.5156C17.875 26.7344 17.8125 26.9896 17.875 27.2812C18.2292 29.1771 19.0625 30.5312 20.375 31.3438C21.6875 32.1562 23.0104 32.5208 24.3438 32.4375V32.4375" fill="#7DD3FC"/>
</svg>
